<svg width="353" height="364" viewBox="0 0 353 364" fill="none" xmlns="http://www.w3.org/2000/svg">
<path d="M138.884 302.725C140.045 300.569 141.122 298.331 142.2 296.092C147.092 286.391 152.15 276.358 158.535 267.237C156.628 257.37 157.871 248.25 162.183 240.704C163.924 237.554 166.163 234.9 168.236 232.247C170.972 228.93 173.46 225.779 174.455 222.463C176.279 216.493 173.211 209.943 169.811 205.797C165.334 200.407 158.866 196.427 152.648 192.613C137.308 183.244 121.969 173.791 106.712 164.422C100.079 160.359 92.6167 155.799 86.6468 149.331C84.4081 146.927 82.501 144.356 81.0085 141.703V305.793H69.4003C37.8924 305.793 12.1885 331.248 11.7739 362.673V363.917H49.2518C49.2518 361.595 50.6614 359.44 52.983 358.528C55.5534 357.533 58.3726 356.621 61.1917 355.874C66.2495 354.548 71.3903 353.47 76.3653 352.475C87.0614 350.319 97.1771 348.246 106.049 343.271C121.057 334.814 130.675 318.811 138.884 302.725Z" fill="#025959"/>
<path d="M112.683 154.555C128.022 164.007 143.361 173.377 158.701 182.746C165.417 186.892 173.045 191.535 178.766 198.417C185.731 206.792 188.219 216.99 185.566 225.779C183.907 231.335 180.342 235.729 177.191 239.544C175.284 241.865 173.543 244.104 172.216 246.343C170.889 248.664 170.06 251.235 169.563 254.054C169.729 253.888 169.894 253.722 170.06 253.639C180.01 244.187 192.116 237.802 203.724 231.584C215.166 225.531 226.028 219.81 234.735 211.518C247.918 198.998 255.381 180.259 254.717 161.188C254.303 150.243 250.82 134.738 242.114 124.125C241.202 123.047 240.787 121.72 240.787 120.477H233.822L176.362 181.005L123.545 125.534L118.901 120.642H88.5542C88.5542 121.14 88.4713 121.637 88.3054 122.218C88.0567 123.047 87.9738 123.876 87.8908 124.705C87.5592 130.178 90.1296 136.313 95.0216 141.62C99.9136 146.761 106.381 150.741 112.683 154.555Z" fill="#025959"/>
<path d="M277.519 342.608C270.637 341.032 263.506 339.789 256.541 338.628C240.124 335.809 223.126 332.824 207.538 325.361C190.872 317.401 176.445 304.301 166.909 288.547C165.5 286.225 164.256 283.903 163.178 281.499C159.364 287.883 155.964 294.682 152.565 301.316C151.487 303.554 150.326 305.793 149.165 308.032C140.625 324.864 129.431 343.354 111.439 353.387C101.074 359.191 89.5488 361.513 78.4381 363.834C78.1894 363.917 77.9406 363.917 77.6919 364H320.967C318.728 361.761 316.158 359.44 313.338 357.45C303.969 350.816 292.278 346.007 277.519 342.608Z" fill="#025959"/>
<path d="M283.489 305.876H271.881V120.559H253.888C262.428 133.08 265.994 149.165 266.408 160.856C267.237 183.161 258.365 205.299 242.86 219.975C232.91 229.428 220.887 235.729 209.279 241.865C197.754 247.918 186.975 253.639 178.103 262.014C175.698 264.335 173.377 266.823 171.138 269.725C172.465 273.953 174.372 278.348 176.859 282.411C185.234 296.258 197.92 307.783 212.513 314.748C226.691 321.547 242.114 324.2 258.531 327.102C265.579 328.346 272.958 329.59 280.089 331.248C296.341 334.979 309.441 340.369 320.055 347.831C325.527 351.728 330.004 356.372 333.321 360.02C334.316 361.098 334.814 362.507 334.814 363.917H341.115V362.756C340.701 331.331 314.997 305.876 283.489 305.876Z" fill="#025959"/>
<path d="M69.2346 294.268V52.5686C31.4251 52.5686 0.663326 82.9157 0 120.642V121.803V360.766V363.502C0 362.59 1.89655e-06 361.678 0.0829176 360.766C1.49248 323.786 31.9226 294.268 69.2346 294.268Z" fill="#025959"/>
<path d="M352.724 121.637V120.559C352.06 82.9157 321.299 52.4857 283.489 52.4857V294.185C321.382 294.185 352.143 324.615 352.724 362.259C352.724 362.59 352.724 363.005 352.724 363.42V362.259V121.803C352.724 121.72 352.724 121.72 352.724 121.637Z" fill="#025959"/>
<path d="M131.919 117.492L134.821 120.559L176.279 164.173L217.736 120.559L220.638 117.492L228.681 109.034C237.885 97.5918 243.357 82.9986 243.357 67.1617C243.357 30.0984 213.259 0 176.196 0C139.132 0 109.034 30.0984 109.034 67.1617C109.034 82.9986 114.506 97.5918 123.71 109.034L131.919 117.492ZM176.362 39.3021C191.701 39.3021 204.221 51.7394 204.221 67.1617C204.221 82.5841 191.701 94.9385 176.362 94.9385C161.022 94.9385 148.502 82.5011 148.502 67.0788C148.502 51.6565 161.022 39.3021 176.362 39.3021Z" fill="#A0A603"/>
</svg>
